<svg width="28" height="31" viewBox="0 0 28 31" fill="none" xmlns="http://www.w3.org/2000/svg">
<path d="M22.583 29.6221C20.8317 31.2506 18.9196 30.9934 17.0789 30.222C15.131 29.4335 13.344 29.3992 11.2889 30.222C8.71556 31.2849 7.3574 30.9763 5.82054 29.6221C-2.90023 20.9994 -1.61356 7.86836 8.28667 7.38837C10.6992 7.50837 12.379 8.65691 13.7908 8.75976C15.8995 8.34834 17.9188 7.16552 20.1705 7.3198C22.869 7.52551 24.9062 8.55405 26.2465 10.4054C20.6709 13.6111 21.9933 20.6566 27.1042 22.628C26.0856 25.1993 24.7632 27.7535 22.5652 29.6392L22.583 29.6221ZM13.6121 7.28552C13.344 3.46276 16.5786 0.308563 20.2956 0C20.8139 4.42274 16.1139 7.71408 13.6121 7.28552Z" fill="white"/>
</svg>
