<svg width="33" height="22" viewBox="0 0 33 22" fill="none" xmlns="http://www.w3.org/2000/svg">
<path fill-rule="evenodd" clip-rule="evenodd" d="M9.6655 0.0140862C7.07144 -0.157526 5.00595 1.28714 3.56174 3.10154C2.10939 4.92687 1.0864 7.34504 0.520428 9.76009C-0.042296 12.1736 -0.18379 14.7353 0.269967 16.8804C0.712339 18.9647 1.83779 21.1083 4.20578 21.787C6.46481 22.4344 8.49126 21.514 10.0396 20.2643C11.5911 19.0131 12.9345 17.2283 14.0177 15.5044C14.8666 14.1518 15.592 12.7742 16.1612 11.5979C16.7304 12.7727 17.4558 14.1518 18.3031 15.5044C19.3863 17.2283 20.7297 19.0131 22.2812 20.2643C23.8296 21.514 25.856 22.4344 28.115 21.787C30.483 21.1083 31.6085 18.9647 32.0508 16.8804C32.5062 14.7353 32.3631 12.1736 31.8004 9.76009C31.2344 7.34504 30.2114 4.92531 28.7591 3.10154C27.3165 1.28714 25.251 -0.159086 22.6569 0.0140862C19.8368 0.201299 17.8266 2.30589 16.6605 3.89564C16.4875 4.13322 16.321 4.37512 16.1612 4.62109C16.0011 4.37501 15.834 4.1331 15.6603 3.89564C14.4942 2.30433 12.4856 0.20286 9.6655 0.0140862ZM14.3007 7.85364C13.8404 8.96912 12.7231 11.5168 11.2301 13.8959C10.2201 15.506 9.09465 16.9506 7.9448 17.8773C6.79496 18.8056 5.89233 19.0131 5.13932 18.7978C4.49527 18.6137 3.81057 17.9241 3.45765 16.2595C3.11937 14.6573 3.20231 12.5542 3.6951 10.4434C4.18952 8.33259 5.058 6.36529 6.14767 4.99396C7.24546 3.61326 8.37416 3.0563 9.43944 3.12807C10.6852 3.21075 11.9278 4.22794 12.9979 5.68977C13.5964 6.5057 14.0437 7.331 14.299 7.85208L14.3007 7.85364ZM18.0218 7.85364C18.4804 8.96912 19.5994 11.5168 21.0907 13.8959C22.1023 15.506 23.2278 16.9506 24.376 17.8773C25.5275 18.8056 26.4285 19.0131 27.1831 18.7978C27.8255 18.6137 28.5102 17.9241 28.8632 16.2595C29.2031 14.6573 29.1201 12.5542 28.6257 10.4434C28.1313 8.33259 27.2644 6.36529 26.1731 4.99396C25.0753 3.61326 23.9483 3.0563 22.8814 3.12807C21.6356 3.21075 20.393 4.22794 19.3229 5.68977C18.8271 6.37451 18.3919 7.0978 18.0218 7.85208V7.85364Z" fill="#5BADFF"/>
</svg>
